<?xml version="1.0" encoding="UTF-8" standalone="no"?>
<!DOCTYPE svg PUBLIC "-//W3C//DTD SVG 1.1//EN" "http://www.w3.org/Graphics/SVG/1.1/DTD/svg11.dtd">
<svg width="100%" height="100%" viewBox="0 0 1024 1024" version="1.1" xmlns="http://www.w3.org/2000/svg" xmlns:xlink="http://www.w3.org/1999/xlink" xml:space="preserve" xmlns:serif="http://www.serif.com/" style="fill-rule:evenodd;clip-rule:evenodd;stroke-linejoin:round;stroke-miterlimit:2;">
    <g transform="matrix(0.978822,0,0,1,21.6861,0)">
        <path d="M1024,51.2L1024,972.8C1024,1001.06 1000.56,1024 971.692,1024L30.152,1024C1.283,1024 -22.155,1001.06 -22.155,972.8L-22.155,51.2C-22.155,22.942 1.283,0 30.152,0L971.692,0C1000.56,0 1024,22.942 1024,51.2Z" style="fill:rgb(46,52,64);"/>
    </g>
    <g transform="matrix(1,0,0,1,-8.15049,-10.1396)">
        <rect x="111.903" y="200.297" width="816.495" height="20.279" style="fill:white;"/>
    </g>
    <g transform="matrix(1,0,0,1,-8.15049,73.6274)">
        <rect x="111.903" y="200.297" width="816.495" height="20.279" style="fill:white;"/>
    </g>
    <g transform="matrix(1,0,0,1,-8.15049,153.438)">
        <rect x="111.903" y="200.297" width="816.495" height="20.279" style="fill:white;"/>
    </g>
    <g transform="matrix(1,0,0,1,-8.15049,241.822)">
        <rect x="111.903" y="200.297" width="816.495" height="20.279" style="fill:white;"/>
    </g>
    <g transform="matrix(1,0,0,1,-8.15049,322.089)">
        <rect x="111.903" y="200.297" width="816.495" height="20.279" style="fill:white;"/>
    </g>
    <g transform="matrix(1,0,0,1,-8.15049,405.273)">
        <rect x="111.903" y="200.297" width="816.495" height="20.279" style="fill:white;"/>
    </g>
    <g transform="matrix(1.01194,0,0,1.00515,-12.9798,-0.308532)">
        <path d="M900.859,104.589L900.859,697.31C900.859,711.533 889.389,723.081 875.262,723.081L162.306,723.081C148.179,723.081 136.709,711.533 136.709,697.31L136.709,104.589C136.709,90.366 148.179,78.818 162.306,78.818L875.262,78.818C889.389,78.818 900.859,90.366 900.859,104.589Z"/>
    </g>
    <g transform="matrix(1.16115,0,0,1,-26.7319,0)">
        <rect x="60.932" y="181.731" width="55.306" height="40.558"/>
    </g>
    <g transform="matrix(1.16115,0,0,1,-26.7319,82.0534)">
        <rect x="60.932" y="181.731" width="55.306" height="40.558"/>
    </g>
    <g transform="matrix(1.16115,0,0,1,-26.7319,161.864)">
        <rect x="60.932" y="181.731" width="55.306" height="40.558"/>
    </g>
    <g transform="matrix(1.16115,0,0,1,-26.7319,249.141)">
        <rect x="60.932" y="181.731" width="55.306" height="40.558"/>
    </g>
    <g transform="matrix(1.16115,0,0,1,-26.7319,330.269)">
        <rect x="60.932" y="181.731" width="55.306" height="40.558"/>
    </g>
    <g transform="matrix(1.16115,0,0,1,-26.7319,414.667)">
        <rect x="60.932" y="181.731" width="55.306" height="40.558"/>
    </g>
    <g transform="matrix(1.16115,0,0,1,847.627,-1.71359)">
        <rect x="60.932" y="181.731" width="55.306" height="40.558"/>
    </g>
    <g transform="matrix(1.16115,0,0,1,847.627,80.3398)">
        <rect x="60.932" y="181.731" width="55.306" height="40.558"/>
    </g>
    <g transform="matrix(1.16115,0,0,1,847.627,160.15)">
        <rect x="60.932" y="181.731" width="55.306" height="40.558"/>
    </g>
    <g transform="matrix(1.16115,0,0,1,847.627,247.427)">
        <rect x="60.932" y="181.731" width="55.306" height="40.558"/>
    </g>
    <g transform="matrix(1.16115,0,0,1,847.627,328.555)">
        <rect x="60.932" y="181.731" width="55.306" height="40.558"/>
    </g>
    <g transform="matrix(1.16115,0,0,1,847.627,412.953)">
        <rect x="60.932" y="181.731" width="55.306" height="40.558"/>
    </g>
    <g transform="matrix(2.07742,0,0,1.89292,2.97221,451.773)">
        <path d="M116.238,185.787L116.238,218.233C116.238,220.472 114.582,222.289 112.542,222.289L64.628,222.289C62.588,222.289 60.932,220.472 60.932,218.233L60.932,185.787C60.932,183.548 62.588,181.731 64.628,181.731L112.542,181.731C114.582,181.731 116.238,183.548 116.238,185.787Z"/>
    </g>
    <g transform="matrix(2.07742,0,0,1.89292,132.972,451.773)">
        <path d="M116.238,185.787L116.238,218.233C116.238,220.472 114.582,222.289 112.542,222.289L64.628,222.289C62.588,222.289 60.932,220.472 60.932,218.233L60.932,185.787C60.932,183.548 62.588,181.731 64.628,181.731L112.542,181.731C114.582,181.731 116.238,183.548 116.238,185.787Z"/>
    </g>
    <g transform="matrix(2.07742,0,0,1.89292,262.972,451.773)">
        <path d="M116.238,185.787L116.238,218.233C116.238,220.472 114.582,222.289 112.542,222.289L64.628,222.289C62.588,222.289 60.932,220.472 60.932,218.233L60.932,185.787C60.932,183.548 62.588,181.731 64.628,181.731L112.542,181.731C114.582,181.731 116.238,183.548 116.238,185.787Z"/>
    </g>
    <g transform="matrix(2.07742,0,0,1.89292,392.972,451.773)">
        <path d="M116.238,185.787L116.238,218.233C116.238,220.472 114.582,222.289 112.542,222.289L64.628,222.289C62.588,222.289 60.932,220.472 60.932,218.233L60.932,185.787C60.932,183.548 62.588,181.731 64.628,181.731L112.542,181.731C114.582,181.731 116.238,183.548 116.238,185.787Z"/>
    </g>
    <g transform="matrix(2.07742,0,0,1.89292,522.972,451.773)">
        <path d="M116.238,185.787L116.238,218.233C116.238,220.472 114.582,222.289 112.542,222.289L64.628,222.289C62.588,222.289 60.932,220.472 60.932,218.233L60.932,185.787C60.932,183.548 62.588,181.731 64.628,181.731L112.542,181.731C114.582,181.731 116.238,183.548 116.238,185.787Z"/>
    </g>
    <g transform="matrix(2.07742,0,0,1.89292,2.97221,551.773)">
        <path d="M116.238,185.787L116.238,218.233C116.238,220.472 114.582,222.289 112.542,222.289L64.628,222.289C62.588,222.289 60.932,220.472 60.932,218.233L60.932,185.787C60.932,183.548 62.588,181.731 64.628,181.731L112.542,181.731C114.582,181.731 116.238,183.548 116.238,185.787Z"/>
    </g>
    <g transform="matrix(2.07742,0,0,1.89292,132.972,551.773)">
        <path d="M116.238,185.787L116.238,218.233C116.238,220.472 114.582,222.289 112.542,222.289L64.628,222.289C62.588,222.289 60.932,220.472 60.932,218.233L60.932,185.787C60.932,183.548 62.588,181.731 64.628,181.731L112.542,181.731C114.582,181.731 116.238,183.548 116.238,185.787Z"/>
    </g>
    <g transform="matrix(2.07742,0,0,1.89292,2.97221,651.773)">
        <path d="M116.238,185.787L116.238,218.233C116.238,220.472 114.582,222.289 112.542,222.289L64.628,222.289C62.588,222.289 60.932,220.472 60.932,218.233L60.932,185.787C60.932,183.548 62.588,181.731 64.628,181.731L112.542,181.731C114.582,181.731 116.238,183.548 116.238,185.787Z"/>
    </g>
    <g transform="matrix(2.07742,0,0,1.89292,132.972,651.773)">
        <path d="M116.238,185.787L116.238,218.233C116.238,220.472 114.582,222.289 112.542,222.289L64.628,222.289C62.588,222.289 60.932,220.472 60.932,218.233L60.932,185.787C60.932,183.548 62.588,181.731 64.628,181.731L112.542,181.731C114.582,181.731 116.238,183.548 116.238,185.787Z"/>
    </g>
    <g transform="matrix(1.30343,0,0,1.89292,331.536,651.773)">
        <path d="M116.238,185.539L116.238,218.481C116.238,220.583 113.76,222.289 110.707,222.289L66.463,222.289C63.41,222.289 60.932,220.583 60.932,218.481L60.932,185.539C60.932,183.437 63.41,181.731 66.463,181.731L110.707,181.731C113.76,181.731 116.238,183.437 116.238,185.539Z"/>
    </g>
    <g transform="matrix(1.30343,0,0,1.89292,731.536,651.773)">
        <path d="M116.238,185.539L116.238,218.481C116.238,220.583 113.76,222.289 110.707,222.289L66.463,222.289C63.41,222.289 60.932,220.583 60.932,218.481L60.932,185.539C60.932,183.437 63.41,181.731 66.463,181.731L110.707,181.731C113.76,181.731 116.238,183.437 116.238,185.539Z"/>
    </g>
    <g transform="matrix(1.30343,0,0,1.89292,631.536,651.773)">
        <path d="M116.238,185.539L116.238,218.481C116.238,220.583 113.76,222.289 110.707,222.289L66.463,222.289C63.41,222.289 60.932,220.583 60.932,218.481L60.932,185.539C60.932,183.437 63.41,181.731 66.463,181.731L110.707,181.731C113.76,181.731 116.238,183.437 116.238,185.539Z"/>
    </g>
    <g transform="matrix(1.30343,0,0,1.89292,435.492,651.773)">
        <path d="M116.238,185.539L116.238,218.481C116.238,220.583 113.76,222.289 110.707,222.289L66.463,222.289C63.41,222.289 60.932,220.583 60.932,218.481L60.932,185.539C60.932,183.437 63.41,181.731 66.463,181.731L110.707,181.731C113.76,181.731 116.238,183.437 116.238,185.539Z"/>
    </g>
    <g transform="matrix(1.30343,0,0,1.89292,531.536,651.773)">
        <path d="M116.238,185.539L116.238,218.481C116.238,220.583 113.76,222.289 110.707,222.289L66.463,222.289C63.41,222.289 60.932,220.583 60.932,218.481L60.932,185.539C60.932,183.437 63.41,181.731 66.463,181.731L110.707,181.731C113.76,181.731 116.238,183.437 116.238,185.539Z"/>
    </g>
    <g transform="matrix(2.07742,0,0,1.89292,262.972,551.773)">
        <path d="M116.238,185.787L116.238,218.233C116.238,220.472 114.582,222.289 112.542,222.289L64.628,222.289C62.588,222.289 60.932,220.472 60.932,218.233L60.932,185.787C60.932,183.548 62.588,181.731 64.628,181.731L112.542,181.731C114.582,181.731 116.238,183.548 116.238,185.787Z"/>
    </g>
    <g transform="matrix(2.07742,0,0,1.89292,392.972,551.773)">
        <path d="M116.238,185.787L116.238,218.233C116.238,220.472 114.582,222.289 112.542,222.289L64.628,222.289C62.588,222.289 60.932,220.472 60.932,218.233L60.932,185.787C60.932,183.548 62.588,181.731 64.628,181.731L112.542,181.731C114.582,181.731 116.238,183.548 116.238,185.787Z"/>
    </g>
    <g transform="matrix(2.07742,0,0,1.89292,522.972,551.773)">
        <path d="M116.238,185.787L116.238,218.233C116.238,220.472 114.582,222.289 112.542,222.289L64.628,222.289C62.588,222.289 60.932,220.472 60.932,218.233L60.932,185.787C60.932,183.548 62.588,181.731 64.628,181.731L112.542,181.731C114.582,181.731 116.238,183.548 116.238,185.787Z"/>
    </g>
    <g transform="matrix(2.07742,0,0,1.89292,652.972,551.773)">
        <path d="M116.238,185.787L116.238,218.233C116.238,220.472 114.582,222.289 112.542,222.289L64.628,222.289C62.588,222.289 60.932,220.472 60.932,218.233L60.932,185.787C60.932,183.548 62.588,181.731 64.628,181.731L112.542,181.731C114.582,181.731 116.238,183.548 116.238,185.787Z"/>
    </g>
    <g transform="matrix(0.957953,0,0,0.957953,4.78173,23.0108)">
        <circle cx="873.149" cy="846.754" r="40.072" style="fill:rgb(76,86,106);"/>
    </g>
    <g transform="matrix(1.18525,0,0,1.18525,-24.7948,-193.867)">
        <text x="140.053px" y="341.998px" style="font-family:'AndaleMono', 'Andale Mono', monospace;font-size:53.541px;fill:rgb(136,192,208);">METAR KDEN</text>
        <text x="140.053px" y="395.539px" style="font-family:'AndaleMono', 'Andale Mono', monospace;font-size:53.541px;fill:rgb(163,190,140);">KDEN 072153Z</text>
        <text x="140.053px" y="449.081px" style="font-family:'AndaleMono', 'Andale Mono', monospace;font-size:53.541px;fill:rgb(163,190,140);">03006KT 10SM OVC022</text>
        <text x="140.053px" y="502.622px" style="font-family:'AndaleMono', 'Andale Mono', monospace;font-size:53.541px;fill:rgb(163,190,140);">10/06 A2994</text>
    </g>
    <g transform="matrix(1.19534,0,0,1.19534,-24.2004,57.4276)">
        <g transform="matrix(48,0,0,48,744.952,341.998)">
        </g>
        <text x="140.053px" y="341.998px" style="font-family:'AndaleMono', 'Andale Mono', monospace;font-size:48px;fill:rgb(236,239,244);">---------------------</text>
    </g>
    <g transform="matrix(1.19534,0,0,1.19534,618.38,-253.502)">
        <g transform="matrix(48,0,0,48,226.467,341.998)">
        </g>
        <text x="140.053px" y="341.998px" style="font-family:'AndaleMono', 'Andale Mono', monospace;font-size:48px;fill:rgb(236,239,244);">1/1</text>
    </g>
    <g transform="matrix(1.19534,0,0,1.19534,-24.7507,225.619)">
        <g transform="matrix(48,0,0,48,284.077,341.998)">
        </g>
        <text x="140.053px" y="341.998px" style="font-family:'AndaleMono', 'Andale Mono', monospace;font-size:48px;fill:rgb(236,239,244);">&lt;BACK</text>
    </g>
    <g transform="matrix(1.03854,0,0,1.183,-36.8502,-112.608)">
        <rect x="627.679" y="585.054" width="257.457" height="62.097" style="fill:rgb(136,192,208);"/>
    </g>
    <g transform="matrix(1.19534,0,0,1.19534,464.734,225.619)">
        <g transform="matrix(48,0,0,48,341.686,341.998)">
        </g>
        <text x="140.053px" y="341.998px" style="font-family:'AndaleMono', 'Andale Mono', monospace;font-size:48px;">DECODE&gt;</text>
    </g>
</svg>
